Coordinates
version=1
nRows=43
nColumns=12
inDegrees=yes

Units are S.I. units (second, meters, Newtons, ...)
Angles are in degrees

endheader
time	SC_y	SC_z	SC_x	AC_y	AC_z	AC_x	GH_y	GH_z	GH_yy	EL_x	PS_y
       0.0              -39.99          32.31          15.73          33.47         -16.63         -11.11          102.5          48.23         -70.98          63.38          102.0
  0.002516              -39.99          32.31          15.73          33.47         -16.63         -11.11          102.5          48.22         -70.94          63.39          102.0
  0.005032              -39.98          32.31          15.74          33.48         -16.63          -11.1          102.5          48.21         -70.91          63.39          102.0
  0.007548              -39.98          32.31          15.74          33.48         -16.62          -11.1          102.4          48.21         -70.87          63.39          102.0
   0.01006              -39.98          32.31          15.75          33.48         -16.62         -11.09          102.4           48.2         -70.83          63.39          102.0
   0.01258              -39.98          32.31          15.76          33.49         -16.62         -11.09          102.4          48.19         -70.79          63.39          102.0
    0.0151              -39.98          32.31          15.76          33.49         -16.62         -11.08          102.3          48.18         -70.74          63.39          102.0
   0.01761              -39.98           32.3          15.77           33.5         -16.61         -11.08          102.3          48.17         -70.69          63.39          102.0
   0.02013              -39.98           32.3          15.78           33.5         -16.61         -11.07          102.3          48.16         -70.64          63.39          102.0
   0.02264              -39.97           32.3          15.79          33.51         -16.61         -11.07          102.2          48.15         -70.58          63.39          102.0
   0.02516              -39.97           32.3           15.8          33.51         -16.61         -11.06          102.2          48.14         -70.52          63.39          102.0
   0.02768              -39.97           32.3          15.81          33.52          -16.6         -11.05          102.1          48.13         -70.46          63.39          102.0
   0.03019              -39.97          32.29          15.82          33.52          -16.6         -11.05          102.1          48.11         -70.39          63.39          102.0
   0.03271              -39.96          32.29          15.83          33.53         -16.59         -11.04          102.0           48.1         -70.31          63.39          102.0
   0.03522              -39.96          32.29          15.84          33.54         -16.59         -11.03          102.0          48.08         -70.23          63.39          102.1
   0.03774              -39.96          32.29          15.86          33.55         -16.59         -11.02          101.9          48.07         -70.14           63.4          102.1
   0.04026              -39.95          32.28          15.87          33.55         -16.58         -11.01          101.9          48.05         -70.04           63.4          102.1
   0.04277              -39.95          32.28          15.89          33.56         -16.58          -11.0          101.8          48.03         -69.94           63.4          102.1
   0.04529              -39.95          32.27          15.91          33.57         -16.57         -10.98          101.7          48.01         -69.82           63.4          102.1
    0.0478              -39.94          32.27          15.93          33.58         -16.56         -10.97          101.6          47.98          -69.7           63.4          102.1
   0.05032              -39.94          32.27          15.95           33.6         -16.56         -10.95          101.5          47.96         -69.56           63.4          102.1
   0.05283              -39.93          32.26          15.98          33.61         -16.55         -10.94          101.4          47.93         -69.41           63.4          102.1
   0.05535              -39.93          32.26           16.0          33.63         -16.54         -10.92          101.3          47.89         -69.24          63.41          102.2
   0.05787              -39.92          32.25          16.03          33.64         -16.53          -10.9          101.2          47.86         -69.05          63.41          102.2
   0.06038              -39.91          32.24          16.07          33.66         -16.52         -10.87          101.0          47.82         -68.85          63.41          102.2
    0.0629              -39.91          32.23           16.1          33.68         -16.51         -10.85          100.9          47.77         -68.62          63.41          102.2
   0.06541               -39.9          32.22          16.14           33.7          -16.5         -10.82          100.7          47.72         -68.36          63.42          102.3
   0.06793              -39.89          32.22          16.19          33.73         -16.48         -10.79          100.5          47.67         -68.06          63.42          102.3
   0.07045              -39.88           32.2          16.24          33.76         -16.46         -10.75          100.2           47.6         -67.74          63.43          102.3
   0.07296              -39.86          32.19           16.3          33.79         -16.45         -10.71          99.99          47.53         -67.36          63.43          102.4
   0.07548              -39.85          32.18          16.37          33.83         -16.42         -10.66          99.69          47.45         -66.94          63.44          102.4
   0.07799              -39.83          32.16          16.45          33.88          -16.4         -10.61          99.35          47.36         -66.45          63.44          102.5
   0.08051              -39.81          32.14          16.54          33.93         -16.37         -10.55          98.95          47.25         -65.88          63.45          102.5
   0.08303              -39.79          32.12          16.64          33.98         -16.34         -10.47          98.49          47.12         -65.22          63.46          102.6
   0.08554              -39.76          32.09          16.77          34.05          -16.3         -10.39          97.96          46.97         -64.46          63.47          102.7
   0.08806              -39.73          32.06          16.91          34.13         -16.25         -10.29          97.32           46.8         -63.55          63.48          102.8
   0.09057               -39.7          32.02          17.08          34.23          -16.2         -10.17          96.57          46.59         -62.47          63.49          102.9
   0.09309              -39.65          31.98          17.29          34.34         -16.13         -10.02          95.67          46.35         -61.18          63.51          103.0
   0.09561               -39.6          31.93          17.54          34.48         -16.05         -9.852          94.58          46.05         -59.62          63.53          103.2
   0.09812              -39.53          31.86          17.84          34.65         -15.96         -9.641          93.25          45.68         -57.72          63.55          103.4
    0.1006              -39.45          31.78          18.22          34.86         -15.84          -9.38           91.6          45.23         -55.36          63.58          103.7
    0.1032              -39.35          31.68          18.69          35.13         -15.69         -9.054          89.55          44.66         -52.43          63.62          104.0
    0.1057              -39.23          31.56          19.28          35.46          -15.5         -8.644          86.97          43.95         -48.73          63.66          104.4
